<svg xmlns="http://www.w3.org/2000/svg" width="890.42" height="472.88" viewBox="0 0 890.42 472.88"><defs><style>.cls-1{fill:#70943e;}.cls-2{fill:#8eab3d;}.cls-3{fill:#b0c45b;}.cls-4{fill:#cedd78;}</style></defs><g id="Layer_1" data-name="Layer 1"><path class="cls-1" d="M224.89,107.25h52a88.3,88.3,0,0,1,88.3,88.3V252a0,0,0,0,1,0,0h-52a88.3,88.3,0,0,1-88.3-88.3V107.25a0,0,0,0,1,0,0Z" transform="translate(64.09 -77.24) rotate(16.71)"></path><path class="cls-2" d="M190.65,128.58h52a88.3,88.3,0,0,1,88.3,88.3v56.48a0,0,0,0,1,0,0H279a88.3,88.3,0,0,1-88.3-88.3V128.58a0,0,0,0,1,0,0Z"></path><path class="cls-2" d="M526.93,356.35H440.36V268.83h86.57Zm-72.57-14h58.57V282.83H454.36Z"></path><rect class="cls-2" x="470.49" y="299.25" width="26.33" height="26.67"></rect><rect class="cls-3" x="490.22" y="103.95" width="49.73" height="50.38"></rect><rect class="cls-1" x="539.95" y="204.72" width="49.73" height="50.38"></rect><rect class="cls-4" x="539.95" y="154.33" width="49.73" height="50.38"></rect><rect class="cls-2" x="539.95" y="53.56" width="49.73" height="50.38"></rect><rect class="cls-1" x="539.95" y="255.1" width="49.73" height="50.38"></rect><rect class="cls-2" x="589.68" y="204.72" width="49.73" height="50.38"></rect><rect class="cls-4" x="589.68" y="305.49" width="49.73" height="50.38"></rect><rect class="cls-1" x="639.41" y="103.95" width="49.73" height="50.38"></rect><rect class="cls-3" x="639.41" y="255.19" width="49.73" height="50.38"></rect><rect class="cls-4" x="689.14" y="154.33" width="49.73" height="50.38"></rect><rect class="cls-1" x="689.14" y="305.49" width="49.73" height="50.38"></rect><rect class="cls-4" x="738.87" y="255.1" width="49.73" height="50.38"></rect><rect class="cls-4" x="788.6" y="104.04" width="49.73" height="50.38"></rect><rect class="cls-2" x="838.33" y="204.72" width="49.73" height="50.38"></rect><path class="cls-2" d="M64,458.36H28.34l-5.64,13.2H9.14L44.06,391h4.32L83.3,471.56H69.62ZM46.22,414.68,32.9,447.44H59.42Z"></path><path class="cls-2" d="M155.36,467.48a40.74,40.74,0,0,1,.06-71,42.34,42.34,0,0,1,21.12-5.4,40.32,40.32,0,0,1,18.72,4.32,38.88,38.88,0,0,1,14,12.24l-9.24,7.56q-8.88-12.48-23.64-12.48a28.75,28.75,0,0,0-14.76,3.78,26.37,26.37,0,0,0-10.08,10.44A32.82,32.82,0,0,0,151.7,447,27.16,27.16,0,0,0,162,457.64a31.74,31.74,0,0,0,29,.66,26,26,0,0,0,9.78-8.82V441H176.42V429.68H213.5V452a39.64,39.64,0,0,1-15.12,15.18,42.78,42.78,0,0,1-21.84,5.7A42.24,42.24,0,0,1,155.36,467.48Z"></path><path class="cls-2" d="M324.5,471.56,301.94,441H287.42v30.6H274.7v-79.2h28.92a31,31,0,0,1,14,3.06,22.69,22.69,0,0,1,9.48,8.58,23.75,23.75,0,0,1,3.36,12.6,23.4,23.4,0,0,1-4.08,13.68,23.68,23.68,0,0,1-11.16,8.64L339,471.56Zm-37.08-41.88h16q6.6,0,10.32-3.6a12.44,12.44,0,0,0,3.72-9.36,12.59,12.59,0,0,0-3.72-9.48q-3.72-3.6-10.32-3.6h-16Z"></path><path class="cls-2" d="M396,392.36h12.72v79.2H396Z"></path><path class="cls-2" d="M474.26,392.36H499.1q13,0,22.68,5a36.49,36.49,0,0,1,15.06,13.92,42.21,42.21,0,0,1,0,41.1,37.07,37.07,0,0,1-15.12,14.1,48.23,48.23,0,0,1-22.62,5.1H474.26ZM499,460.16a33.79,33.79,0,0,0,16-3.6,25.28,25.28,0,0,0,10.5-10.08,29.24,29.24,0,0,0,3.66-14.64,28.74,28.74,0,0,0-3.66-14.7A24.93,24.93,0,0,0,515,407.36a34.66,34.66,0,0,0-16-3.48H487v56.28Z"></path><path class="cls-2" d="M648.5,458.36H612.86l-5.64,13.2H593.66L628.58,391h4.32l34.92,80.52H654.14Zm-17.76-43.68-13.32,32.76h26.52Z"></path><path class="cls-2" d="M735.62,403.76H709v-11.4H775.1v11.4H748.34v67.8H735.62Z"></path><path class="cls-2" d="M871.1,458.36H835.46l-5.64,13.2H816.26L851.18,391h4.32l34.92,80.52H876.74Zm-17.76-43.68L840,447.44h26.52Z"></path><path class="cls-2" d="M119.62,356.49C53.66,356.46,0,302.34,0,235.83c0-60.06,43.75-110,100.81-119.16C126,47.28,192.28,0,266.82,0a171,171,0,0,1,78.95,19.23,182.45,182.45,0,0,1,49.65,37.71,182.58,182.58,0,0,1,29.64-2.84L424.91,104c-8.77-.06-24,2.14-30.82,4.38l-16.69,5.47L366.61,100c-24.76-31.83-61.14-50.09-99.79-50.09-57.13,0-107.46,38.78-122.41,94.32l-5.64,20.86H119.66c-38.46,0-69.75,31.73-69.75,70.74s31.28,70.73,69.73,70.74Z"></path><rect class="cls-2" x="119.63" y="306.6" width="304.65" height="49.91"></rect><rect class="cls-1" x="440.49" y="53.56" width="49.73" height="50.38"></rect><rect class="cls-1" x="440.74" y="204.72" width="49.73" height="50.38"></rect></g></svg>